<svg width="1813" height="309" viewBox="0 0 1813 309" fill="none" xmlns="http://www.w3.org/2000/svg">
<g clip-path="url(#clip0_18_99)">
<mask id="path-1-outside-1_18_99" maskUnits="userSpaceOnUse" x="-3" y="-4" width="271" height="316" fill="black">
<rect fill="white" x="-3" y="-4" width="271" height="316"/>
<path d="M263.819 1.83643C260.102 -2.3314 255.187 1.55127 251.932 4.0739C240.891 12.6399 238.471 16.2922 223.548 19.1329C201.785 23.2898 164.418 22.8291 144.755 12.1573C139.488 9.30562 127.6 -0.642328 122.31 0.0705902C119.913 0.399629 117.626 3.41582 118.121 5.7849C118.692 8.5269 127.039 14.296 129.601 16.04C132.999 18.3542 136.507 20.4162 140.103 22.4014C140.554 22.522 140.631 22.6865 140.631 23.1362C140.653 25.1214 136.903 27.8196 135.551 29.366C124.29 42.2644 112.523 59.4841 119.341 77.2632C122.882 86.5092 129.92 93.057 136.958 99.6378C99.8216 109.915 70.7457 140.208 48.4548 170.195C32.4323 191.747 14.3203 220.318 2.4106 244.338C1.12395 246.927 -2.05417 251.797 1.97072 253.749C3.98316 254.725 11.2851 253.694 13.9024 253.387C34.9286 250.941 63.3667 244.602 83.2162 237.385C126.731 221.547 190.547 174.396 166.54 120.938C164.77 116.989 161.998 113.589 160.25 109.937C160.03 109.476 159.502 109.125 160.481 109.301C170.653 111.055 184.872 122.199 190.832 130.425C218.16 168.144 181.221 194.434 151.969 212.4C140.554 219.408 129.019 224.234 120.914 235.641C110.005 250.996 112.897 267.305 126.874 279.337C120.991 281.958 115.206 284.777 110.016 288.616C106.42 291.27 97.4793 299.222 96.7755 303.521C96.0827 307.733 100.108 310.036 103.825 308.545C105.254 307.974 107.596 303.225 108.96 301.613C113.546 296.195 122.057 291.215 128.689 288.759C137.783 285.391 144.843 284.459 153.355 289.888C155.279 291.106 160.965 296.59 162.724 296.239C167.882 295.197 164.451 289.241 161.921 287.179C165.572 286.927 169.256 286.806 172.874 286.258C182.409 284.788 191.415 279.688 197.958 272.723C199.157 281.256 206.382 288.451 215.499 286.598C220.755 285.523 225.759 276.244 226.342 271.319C226.584 269.258 226.166 266.812 226.342 264.695C241.913 272.274 255.429 258.421 244.849 244.02L240.022 239.6C248.588 235.685 253.02 226.033 248.149 217.445C243.332 208.945 232.456 213.2 225.132 215.306C225.561 202.594 212.046 191.275 201.763 203.055C199.894 205.194 196.947 210.732 196.947 213.507V220.538C189.722 216.447 176.987 215.174 172.325 223.477C167.53 231.988 172.654 241.454 181.243 244.634C181.353 245.194 181.32 245.15 180.99 245.468C180.253 246.17 178.945 246.696 178.032 247.651C170.895 254.955 170.18 268.084 181.43 271.561L186.478 272.734C180.858 275.443 174.865 277.791 168.564 278.361C158.556 279.26 148.659 276.946 138.784 277.165C137.992 277.187 137.2 277.681 136.387 277.582C135.232 277.429 133.483 274.061 132.527 272.965C129.052 268.961 125.653 266.219 124.345 260.648C118.978 237.922 149.11 225.66 164.319 215.898C179.78 205.961 199.498 190.782 206.701 173.441C221.591 137.587 185.268 99.2101 149.836 97.8939C148.329 97.4223 134.462 84.0633 132.747 82.0123C116.427 62.5112 138.157 40.8605 151.364 27.0518C167.343 30.057 183.684 31.8887 200.015 31.428C208.812 31.1758 217.786 30.3641 226.441 28.8725C227.958 28.6093 236.305 26.4376 236.833 26.986C238.482 43.1308 250.051 58.2228 245.971 74.8502C243.64 84.3265 237.361 91.2473 229.3 96.3804C226.1 98.4204 219.842 99.8901 220.81 104.595C222.361 112.152 233.545 105.1 236.954 102.808C255.088 90.5783 260.014 72.6347 254.34 51.8833C252.58 45.4341 245.861 30.8906 246.521 25.2201C246.983 21.2607 253.955 17.3342 256.968 14.7457C260.223 11.9489 267.921 6.45395 263.83 1.86934L263.819 1.83643ZM181.771 256.557C184.553 250.656 193.527 249.702 195.704 245.556C198.728 239.798 188.105 239.03 184.883 237.571C181.551 236.057 176.844 231.977 179.308 227.996C181.628 224.223 188.083 226.033 191.437 227.426C194.692 228.775 205.711 235.948 206.635 228.347C207.273 223.093 204.26 219.211 206.019 212.871C208.483 203.965 215.84 206.247 216.697 214.692C217.115 218.816 214.795 226.888 216.356 229.893C219.062 235.114 223.856 227.491 225.781 225.737C228.772 223.017 237.613 218.618 241.144 221.843C245.289 225.627 237.668 231.33 234.798 233.129C232.599 234.5 227.078 236.332 226.748 239.172C226.188 244.075 233.215 244.942 236.316 246.938C240.143 249.405 242.43 257.566 236.14 258.564C229.553 259.617 224.901 252.389 221.437 252.718C216.015 253.244 218.611 263.96 218.336 267.711C218.105 270.914 216.389 278.01 212.485 278.372C207.185 278.854 206.272 270.629 206.624 266.877C206.822 264.794 211.166 254.648 212.562 253.935C213.211 253.606 214.421 253.562 215.367 253.113C221.492 250.206 222.108 240.62 218.314 235.575C215.554 231.901 210.363 231.769 206.316 233.25C199.223 235.849 198.277 248.879 205.062 252.498C205.546 255.548 195.187 261.503 192.548 262.479C187.071 264.497 177.746 265.155 181.793 256.568L181.771 256.557ZM210.132 240.664C213.53 239.666 215.807 246.411 211.221 247.003C206.954 247.563 207.691 241.377 210.132 240.664ZM147.427 108.686C157.061 118.678 162.746 133.715 161.921 147.623C160.965 163.789 151.496 178.596 140.444 189.849C126.753 203.79 107.289 216.831 89.3195 224.596C65.4891 234.895 39.1954 239.128 13.7595 243.801C13.6385 243.033 14.0344 242.43 14.3423 241.772C17.8943 234.325 23.4808 225.462 27.7806 218.224C49.5765 181.514 89.8254 124.184 132.219 111.176C137.046 109.695 142.413 108.456 147.416 108.675L147.427 108.686Z"/>
</mask>
<path d="M263.819 1.83643C260.102 -2.3314 255.187 1.55127 251.932 4.0739C240.891 12.6399 238.471 16.2922 223.548 19.1329C201.785 23.2898 164.418 22.8291 144.755 12.1573C139.488 9.30562 127.6 -0.642328 122.31 0.0705902C119.913 0.399629 117.626 3.41582 118.121 5.7849C118.692 8.5269 127.039 14.296 129.601 16.04C132.999 18.3542 136.507 20.4162 140.103 22.4014C140.554 22.522 140.631 22.6865 140.631 23.1362C140.653 25.1214 136.903 27.8196 135.551 29.366C124.29 42.2644 112.523 59.4841 119.341 77.2632C122.882 86.5092 129.92 93.057 136.958 99.6378C99.8216 109.915 70.7457 140.208 48.4548 170.195C32.4323 191.747 14.3203 220.318 2.4106 244.338C1.12395 246.927 -2.05417 251.797 1.97072 253.749C3.98316 254.725 11.2851 253.694 13.9024 253.387C34.9286 250.941 63.3667 244.602 83.2162 237.385C126.731 221.547 190.547 174.396 166.54 120.938C164.77 116.989 161.998 113.589 160.25 109.937C160.03 109.476 159.502 109.125 160.481 109.301C170.653 111.055 184.872 122.199 190.832 130.425C218.16 168.144 181.221 194.434 151.969 212.4C140.554 219.408 129.019 224.234 120.914 235.641C110.005 250.996 112.897 267.305 126.874 279.337C120.991 281.958 115.206 284.777 110.016 288.616C106.42 291.27 97.4793 299.222 96.7755 303.521C96.0827 307.733 100.108 310.036 103.825 308.545C105.254 307.974 107.596 303.225 108.96 301.613C113.546 296.195 122.057 291.215 128.689 288.759C137.783 285.391 144.843 284.459 153.355 289.888C155.279 291.106 160.965 296.59 162.724 296.239C167.882 295.197 164.451 289.241 161.921 287.179C165.572 286.927 169.256 286.806 172.874 286.258C182.409 284.788 191.415 279.688 197.958 272.723C199.157 281.256 206.382 288.451 215.499 286.598C220.755 285.523 225.759 276.244 226.342 271.319C226.584 269.258 226.166 266.812 226.342 264.695C241.913 272.274 255.429 258.421 244.849 244.02L240.022 239.6C248.588 235.685 253.02 226.033 248.149 217.445C243.332 208.945 232.456 213.2 225.132 215.306C225.561 202.594 212.046 191.275 201.763 203.055C199.894 205.194 196.947 210.732 196.947 213.507V220.538C189.722 216.447 176.987 215.174 172.325 223.477C167.53 231.988 172.654 241.454 181.243 244.634C181.353 245.194 181.32 245.15 180.99 245.468C180.253 246.17 178.945 246.696 178.032 247.651C170.895 254.955 170.18 268.084 181.43 271.561L186.478 272.734C180.858 275.443 174.865 277.791 168.564 278.361C158.556 279.26 148.659 276.946 138.784 277.165C137.992 277.187 137.2 277.681 136.387 277.582C135.232 277.429 133.483 274.061 132.527 272.965C129.052 268.961 125.653 266.219 124.345 260.648C118.978 237.922 149.11 225.66 164.319 215.898C179.78 205.961 199.498 190.782 206.701 173.441C221.591 137.587 185.268 99.2101 149.836 97.8939C148.329 97.4223 134.462 84.0633 132.747 82.0123C116.427 62.5112 138.157 40.8605 151.364 27.0518C167.343 30.057 183.684 31.8887 200.015 31.428C208.812 31.1758 217.786 30.3641 226.441 28.8725C227.958 28.6093 236.305 26.4376 236.833 26.986C238.482 43.1308 250.051 58.2228 245.971 74.8502C243.64 84.3265 237.361 91.2473 229.3 96.3804C226.1 98.4204 219.842 99.8901 220.81 104.595C222.361 112.152 233.545 105.1 236.954 102.808C255.088 90.5783 260.014 72.6347 254.34 51.8833C252.58 45.4341 245.861 30.8906 246.521 25.2201C246.983 21.2607 253.955 17.3342 256.968 14.7457C260.223 11.9489 267.921 6.45395 263.83 1.86934L263.819 1.83643ZM181.771 256.557C184.553 250.656 193.527 249.702 195.704 245.556C198.728 239.798 188.105 239.03 184.883 237.571C181.551 236.057 176.844 231.977 179.308 227.996C181.628 224.223 188.083 226.033 191.437 227.426C194.692 228.775 205.711 235.948 206.635 228.347C207.273 223.093 204.26 219.211 206.019 212.871C208.483 203.965 215.84 206.247 216.697 214.692C217.115 218.816 214.795 226.888 216.356 229.893C219.062 235.114 223.856 227.491 225.781 225.737C228.772 223.017 237.613 218.618 241.144 221.843C245.289 225.627 237.668 231.33 234.798 233.129C232.599 234.5 227.078 236.332 226.748 239.172C226.188 244.075 233.215 244.942 236.316 246.938C240.143 249.405 242.43 257.566 236.14 258.564C229.553 259.617 224.901 252.389 221.437 252.718C216.015 253.244 218.611 263.96 218.336 267.711C218.105 270.914 216.389 278.01 212.485 278.372C207.185 278.854 206.272 270.629 206.624 266.877C206.822 264.794 211.166 254.648 212.562 253.935C213.211 253.606 214.421 253.562 215.367 253.113C221.492 250.206 222.108 240.62 218.314 235.575C215.554 231.901 210.363 231.769 206.316 233.25C199.223 235.849 198.277 248.879 205.062 252.498C205.546 255.548 195.187 261.503 192.548 262.479C187.071 264.497 177.746 265.155 181.793 256.568L181.771 256.557ZM210.132 240.664C213.53 239.666 215.807 246.411 211.221 247.003C206.954 247.563 207.691 241.377 210.132 240.664ZM147.427 108.686C157.061 118.678 162.746 133.715 161.921 147.623C160.965 163.789 151.496 178.596 140.444 189.849C126.753 203.79 107.289 216.831 89.3195 224.596C65.4891 234.895 39.1954 239.128 13.7595 243.801C13.6385 243.033 14.0344 242.43 14.3423 241.772C17.8943 234.325 23.4808 225.462 27.7806 218.224C49.5765 181.514 89.8254 124.184 132.219 111.176C137.046 109.695 142.413 108.456 147.416 108.675L147.427 108.686Z" fill="#9956B8"/>
<path d="M263.819 1.83643C260.102 -2.3314 255.187 1.55127 251.932 4.0739C240.891 12.6399 238.471 16.2922 223.548 19.1329C201.785 23.2898 164.418 22.8291 144.755 12.1573C139.488 9.30562 127.6 -0.642328 122.31 0.0705902C119.913 0.399629 117.626 3.41582 118.121 5.7849C118.692 8.5269 127.039 14.296 129.601 16.04C132.999 18.3542 136.507 20.4162 140.103 22.4014C140.554 22.522 140.631 22.6865 140.631 23.1362C140.653 25.1214 136.903 27.8196 135.551 29.366C124.29 42.2644 112.523 59.4841 119.341 77.2632C122.882 86.5092 129.92 93.057 136.958 99.6378C99.8216 109.915 70.7457 140.208 48.4548 170.195C32.4323 191.747 14.3203 220.318 2.4106 244.338C1.12395 246.927 -2.05417 251.797 1.97072 253.749C3.98316 254.725 11.2851 253.694 13.9024 253.387C34.9286 250.941 63.3667 244.602 83.2162 237.385C126.731 221.547 190.547 174.396 166.54 120.938C164.77 116.989 161.998 113.589 160.25 109.937C160.03 109.476 159.502 109.125 160.481 109.301C170.653 111.055 184.872 122.199 190.832 130.425C218.16 168.144 181.221 194.434 151.969 212.4C140.554 219.408 129.019 224.234 120.914 235.641C110.005 250.996 112.897 267.305 126.874 279.337C120.991 281.958 115.206 284.777 110.016 288.616C106.42 291.27 97.4793 299.222 96.7755 303.521C96.0827 307.733 100.108 310.036 103.825 308.545C105.254 307.974 107.596 303.225 108.96 301.613C113.546 296.195 122.057 291.215 128.689 288.759C137.783 285.391 144.843 284.459 153.355 289.888C155.279 291.106 160.965 296.59 162.724 296.239C167.882 295.197 164.451 289.241 161.921 287.179C165.572 286.927 169.256 286.806 172.874 286.258C182.409 284.788 191.415 279.688 197.958 272.723C199.157 281.256 206.382 288.451 215.499 286.598C220.755 285.523 225.759 276.244 226.342 271.319C226.584 269.258 226.166 266.812 226.342 264.695C241.913 272.274 255.429 258.421 244.849 244.02L240.022 239.6C248.588 235.685 253.02 226.033 248.149 217.445C243.332 208.945 232.456 213.2 225.132 215.306C225.561 202.594 212.046 191.275 201.763 203.055C199.894 205.194 196.947 210.732 196.947 213.507V220.538C189.722 216.447 176.987 215.174 172.325 223.477C167.53 231.988 172.654 241.454 181.243 244.634C181.353 245.194 181.32 245.15 180.99 245.468C180.253 246.17 178.945 246.696 178.032 247.651C170.895 254.955 170.18 268.084 181.43 271.561L186.478 272.734C180.858 275.443 174.865 277.791 168.564 278.361C158.556 279.26 148.659 276.946 138.784 277.165C137.992 277.187 137.2 277.681 136.387 277.582C135.232 277.429 133.483 274.061 132.527 272.965C129.052 268.961 125.653 266.219 124.345 260.648C118.978 237.922 149.11 225.66 164.319 215.898C179.78 205.961 199.498 190.782 206.701 173.441C221.591 137.587 185.268 99.2101 149.836 97.8939C148.329 97.4223 134.462 84.0633 132.747 82.0123C116.427 62.5112 138.157 40.8605 151.364 27.0518C167.343 30.057 183.684 31.8887 200.015 31.428C208.812 31.1758 217.786 30.3641 226.441 28.8725C227.958 28.6093 236.305 26.4376 236.833 26.986C238.482 43.1308 250.051 58.2228 245.971 74.8502C243.64 84.3265 237.361 91.2473 229.3 96.3804C226.1 98.4204 219.842 99.8901 220.81 104.595C222.361 112.152 233.545 105.1 236.954 102.808C255.088 90.5783 260.014 72.6347 254.34 51.8833C252.58 45.4341 245.861 30.8906 246.521 25.2201C246.983 21.2607 253.955 17.3342 256.968 14.7457C260.223 11.9489 267.921 6.45395 263.83 1.86934L263.819 1.83643ZM181.771 256.557C184.553 250.656 193.527 249.702 195.704 245.556C198.728 239.798 188.105 239.03 184.883 237.571C181.551 236.057 176.844 231.977 179.308 227.996C181.628 224.223 188.083 226.033 191.437 227.426C194.692 228.775 205.711 235.948 206.635 228.347C207.273 223.093 204.26 219.211 206.019 212.871C208.483 203.965 215.84 206.247 216.697 214.692C217.115 218.816 214.795 226.888 216.356 229.893C219.062 235.114 223.856 227.491 225.781 225.737C228.772 223.017 237.613 218.618 241.144 221.843C245.289 225.627 237.668 231.33 234.798 233.129C232.599 234.5 227.078 236.332 226.748 239.172C226.188 244.075 233.215 244.942 236.316 246.938C240.143 249.405 242.43 257.566 236.14 258.564C229.553 259.617 224.901 252.389 221.437 252.718C216.015 253.244 218.611 263.96 218.336 267.711C218.105 270.914 216.389 278.01 212.485 278.372C207.185 278.854 206.272 270.629 206.624 266.877C206.822 264.794 211.166 254.648 212.562 253.935C213.211 253.606 214.421 253.562 215.367 253.113C221.492 250.206 222.108 240.62 218.314 235.575C215.554 231.901 210.363 231.769 206.316 233.25C199.223 235.849 198.277 248.879 205.062 252.498C205.546 255.548 195.187 261.503 192.548 262.479C187.071 264.497 177.746 265.155 181.793 256.568L181.771 256.557ZM210.132 240.664C213.53 239.666 215.807 246.411 211.221 247.003C206.954 247.563 207.691 241.377 210.132 240.664ZM147.427 108.686C157.061 118.678 162.746 133.715 161.921 147.623C160.965 163.789 151.496 178.596 140.444 189.849C126.753 203.79 107.289 216.831 89.3195 224.596C65.4891 234.895 39.1954 239.128 13.7595 243.801C13.6385 243.033 14.0344 242.43 14.3423 241.772C17.8943 234.325 23.4808 225.462 27.7806 218.224C49.5765 181.514 89.8254 124.184 132.219 111.176C137.046 109.695 142.413 108.456 147.416 108.675L147.427 108.686Z" stroke="#9956B8" stroke-width="6" mask="url(#path-1-outside-1_18_99)"/>
<path d="M386.262 260V233.273H454.71C467.748 233.273 477.961 229.47 485.349 221.864C492.737 214.042 496.431 204.698 496.431 193.833C496.431 186.445 494.802 179.818 491.542 173.951C488.283 167.866 483.502 163.086 477.201 159.609C471.116 156.132 463.946 154.394 455.688 154.394H386.262V127.666H451.125C461.99 127.666 470.573 124.842 476.875 119.192C483.394 113.325 486.653 104.959 486.653 94.0941C486.653 83.2292 483.285 74.972 476.549 69.3222C469.813 63.4552 460.903 60.5217 449.821 60.5217H386.262V33.7943H450.473C465.249 33.7943 477.527 36.5105 487.305 41.9429C497.301 47.158 504.797 54.1115 509.795 62.8034C515.01 71.4952 517.618 81.0563 517.618 91.4865C517.618 103.655 514.25 114.303 507.513 123.429C500.995 132.556 491.325 139.726 478.504 144.941L481.112 135.163C495.671 140.378 506.97 148.31 515.01 158.957C523.267 169.387 527.396 181.773 527.396 196.115C527.396 208.066 524.463 218.822 518.596 228.383C512.729 237.944 504.254 245.658 493.172 251.525C482.307 257.175 468.943 260 453.081 260H386.262ZM365.727 260V33.7943H396.366V260H365.727ZM553.813 260V27.2754H583.148V260H553.813ZM687.02 263.259C671.809 263.259 658.12 259.674 645.951 252.503C633.782 245.332 624.113 235.663 616.942 223.494C609.771 211.108 606.186 197.31 606.186 182.099C606.186 167.106 609.771 153.633 616.942 141.682C624.113 129.513 633.782 119.844 645.951 112.673C658.12 105.502 671.809 101.917 687.02 101.917C702.013 101.917 715.594 105.502 727.763 112.673C740.149 119.626 749.927 129.187 757.098 141.356C764.269 153.525 767.854 167.106 767.854 182.099C767.854 197.31 764.269 211.108 757.098 223.494C749.927 235.663 740.149 245.332 727.763 252.503C715.594 259.674 702.013 263.259 687.02 263.259ZM687.02 234.902C696.798 234.902 705.49 232.621 713.096 228.057C720.701 223.494 726.677 217.301 731.023 209.479C735.368 201.439 737.541 192.312 737.541 182.099C737.541 172.104 735.26 163.194 730.697 155.372C726.351 147.549 720.375 141.465 712.77 137.119C705.382 132.556 696.798 130.274 687.02 130.274C677.242 130.274 668.55 132.556 660.944 137.119C653.339 141.465 647.363 147.549 643.017 155.372C638.671 163.194 636.499 172.104 636.499 182.099C636.499 192.312 638.671 201.439 643.017 209.479C647.363 217.301 653.339 223.494 660.944 228.057C668.55 232.621 677.242 234.902 687.02 234.902ZM861.859 263.259C846.648 263.259 832.958 259.674 820.79 252.503C808.621 245.332 798.951 235.663 791.781 223.494C784.61 211.108 781.024 197.31 781.024 182.099C781.024 167.106 784.61 153.633 791.781 141.682C798.951 129.513 808.621 119.844 820.79 112.673C832.958 105.502 846.648 101.917 861.859 101.917C876.852 101.917 890.433 105.502 902.602 112.673C914.988 119.626 924.766 129.187 931.937 141.356C939.108 153.525 942.693 167.106 942.693 182.099C942.693 197.31 939.108 211.108 931.937 223.494C924.766 235.663 914.988 245.332 902.602 252.503C890.433 259.674 876.852 263.259 861.859 263.259ZM861.859 234.902C871.637 234.902 880.329 232.621 887.934 228.057C895.54 223.494 901.515 217.301 905.861 209.479C910.207 201.439 912.38 192.312 912.38 182.099C912.38 172.104 910.099 163.194 905.535 155.372C901.19 147.549 895.214 141.465 887.608 137.119C880.22 132.556 871.637 130.274 861.859 130.274C852.08 130.274 843.389 132.556 835.783 137.119C828.178 141.465 822.202 147.549 817.856 155.372C813.51 163.194 811.337 172.104 811.337 182.099C811.337 192.312 813.51 201.439 817.856 209.479C822.202 217.301 828.178 223.494 835.783 228.057C843.389 232.621 852.08 234.902 861.859 234.902ZM965.968 260V105.176H995.303V260H965.968ZM1070.6 260V166.454C1070.6 154.937 1067.01 145.919 1059.84 139.4C1052.89 132.664 1044.09 129.296 1033.44 129.296C1026.27 129.296 1019.86 130.817 1014.21 133.859C1008.56 136.901 1003.99 141.139 1000.52 146.571C997.041 152.004 995.303 158.522 995.303 166.128L983.243 160.261C983.243 148.527 985.742 138.314 990.739 129.622C995.955 120.93 1003.02 114.194 1011.93 109.413C1020.84 104.416 1030.83 101.917 1041.91 101.917C1052.78 101.917 1062.56 104.307 1071.25 109.088C1080.16 113.868 1087.11 120.604 1092.11 129.296C1097.32 137.988 1099.93 148.31 1099.93 160.261V260H1070.6ZM1175.22 260V166.454C1175.22 154.937 1171.64 145.919 1164.47 139.4C1157.51 132.664 1148.82 129.296 1138.39 129.296C1131.22 129.296 1124.7 130.817 1118.84 133.859C1113.19 136.901 1108.62 141.139 1105.15 146.571C1101.67 152.004 1099.93 158.522 1099.93 166.128L1083.31 160.261C1083.96 148.31 1087.11 138.097 1092.76 129.622C1098.63 120.93 1106.12 114.194 1115.25 109.413C1124.38 104.416 1134.37 101.917 1145.24 101.917C1156.54 101.917 1166.64 104.307 1175.55 109.088C1184.46 113.868 1191.52 120.604 1196.74 129.296C1202.17 137.988 1204.89 148.418 1204.89 160.587V260H1175.22ZM1279.35 260L1218.08 105.176H1248.71L1293.04 225.776H1283.26L1327.27 105.176H1344.22L1388.22 225.776H1378.44L1422.77 105.176H1453.41L1392.46 260H1375.18L1330.53 142.986H1341.28L1296.3 260H1279.35ZM1467.48 260V105.176H1496.82V260H1467.48ZM1482.15 74.2114C1476.72 74.2114 1472.27 72.473 1468.79 68.9963C1465.31 65.3023 1463.57 60.739 1463.57 55.3066C1463.57 50.0915 1465.31 45.7456 1468.79 42.2688C1472.27 38.5748 1476.72 36.7278 1482.15 36.7278C1487.58 36.7278 1492.04 38.5748 1495.52 42.2688C1498.99 45.7456 1500.73 50.0915 1500.73 55.3066C1500.73 60.739 1498.99 65.3023 1495.52 68.9963C1492.04 72.473 1487.58 74.2114 1482.15 74.2114ZM1579.49 263.259C1570.8 263.259 1562.54 262.173 1554.72 260C1547.11 257.61 1540.05 254.35 1533.53 250.222C1527.01 245.876 1521.36 240.769 1516.58 234.902L1535.49 215.997C1541.14 222.951 1547.66 228.166 1555.04 231.643C1562.43 234.902 1570.69 236.532 1579.82 236.532C1588.94 236.532 1596 235.011 1601 231.969C1606 228.709 1608.5 224.255 1608.5 218.605C1608.5 212.955 1606.43 208.609 1602.31 205.567C1598.39 202.308 1593.29 199.7 1586.99 197.745C1580.69 195.572 1573.95 193.507 1566.78 191.552C1559.82 189.379 1553.2 186.662 1546.9 183.403C1540.59 180.144 1535.38 175.689 1531.25 170.039C1527.34 164.39 1525.38 156.893 1525.38 147.549C1525.38 138.205 1527.66 130.165 1532.23 123.429C1536.79 116.476 1543.09 111.152 1551.13 107.458C1559.39 103.764 1569.28 101.917 1580.79 101.917C1592.96 101.917 1603.72 104.09 1613.06 108.436C1622.62 112.564 1630.45 118.866 1636.53 127.34L1617.63 146.245C1613.28 140.596 1607.85 136.25 1601.33 133.207C1595.03 130.165 1587.86 128.644 1579.82 128.644C1571.34 128.644 1564.82 130.165 1560.26 133.207C1555.91 136.032 1553.74 140.052 1553.74 145.267C1553.74 150.483 1555.7 154.503 1559.61 157.327C1563.52 160.152 1568.63 162.542 1574.93 164.498C1581.45 166.454 1588.18 168.518 1595.14 170.691C1602.09 172.647 1608.72 175.363 1615.02 178.84C1621.32 182.316 1626.43 186.988 1630.34 192.855C1634.47 198.722 1636.53 206.436 1636.53 215.997C1636.53 230.556 1631.32 242.073 1620.89 250.548C1610.67 259.022 1596.87 263.259 1579.49 263.259ZM1731.3 263.259C1715.87 263.259 1701.97 259.783 1689.58 252.829C1677.19 245.658 1667.42 235.989 1660.25 223.82C1653.07 211.652 1649.49 197.853 1649.49 182.425C1649.49 167.214 1652.97 153.525 1659.92 141.356C1667.09 129.187 1676.65 119.626 1688.6 112.673C1700.77 105.502 1714.35 101.917 1729.35 101.917C1743.69 101.917 1756.29 105.176 1767.16 111.695C1778.24 118.214 1786.82 127.232 1792.9 138.749C1799.21 150.265 1802.36 163.303 1802.36 177.862C1802.36 180.035 1802.25 182.425 1802.03 185.033C1801.81 187.423 1801.38 190.248 1800.73 193.507H1670.02V169.061H1785.08L1774.33 178.514C1774.33 168.084 1772.48 159.283 1768.79 152.112C1765.09 144.724 1759.88 139.074 1753.14 135.163C1746.4 131.034 1738.25 128.97 1728.69 128.97C1718.7 128.97 1709.9 131.143 1702.29 135.489C1694.69 139.835 1688.82 145.919 1684.69 153.742C1680.56 161.565 1678.5 170.8 1678.5 181.447C1678.5 192.312 1680.67 201.873 1685.02 210.13C1689.36 218.17 1695.56 224.472 1703.6 229.035C1711.64 233.381 1720.87 235.554 1731.3 235.554C1739.99 235.554 1747.92 234.033 1755.1 230.991C1762.48 227.949 1768.79 223.386 1774 217.301L1792.9 236.532C1785.52 245.224 1776.39 251.851 1765.53 256.415C1754.88 260.978 1743.47 263.259 1731.3 263.259Z" fill="#9956B8"/>
</g>
<defs>
<clipPath id="clip0_18_99">
<rect width="1813" height="309" fill="white"/>
</clipPath>
</defs>
</svg>
