<svg width="1322" height="217" viewBox="0 0 1322 217" fill="none" xmlns="http://www.w3.org/2000/svg">
<g clip-path="url(#clip0_85_28)">
<path d="M1256.88 217.2C1242.68 217.2 1229.88 214 1218.48 207.6C1207.08 201 1198.08 192.1 1191.48 180.9C1184.88 169.7 1181.58 157 1181.58 142.8C1181.58 128.8 1184.78 116.2 1191.18 105C1197.78 93.8 1206.58 85 1217.58 78.6C1228.78 72 1241.28 68.7 1255.08 68.7C1268.28 68.7 1279.88 71.7 1289.88 77.7C1300.08 83.7 1307.98 92 1313.58 102.6C1319.38 113.2 1322.28 125.2 1322.28 138.6C1322.28 140.6 1322.18 142.8 1321.98 145.2C1321.78 147.4 1321.38 150 1320.78 153H1200.48V130.5H1306.38L1296.48 139.2C1296.48 129.6 1294.78 121.5 1291.38 114.9C1287.98 108.1 1283.18 102.9 1276.98 99.3C1270.78 95.5 1263.28 93.6 1254.48 93.6C1245.28 93.6 1237.18 95.6 1230.18 99.6C1223.18 103.6 1217.78 109.2 1213.98 116.4C1210.18 123.6 1208.28 132.1 1208.28 141.9C1208.28 151.9 1210.28 160.7 1214.28 168.3C1218.28 175.7 1223.98 181.5 1231.38 185.7C1238.78 189.7 1247.28 191.7 1256.88 191.7C1264.88 191.7 1272.18 190.3 1278.78 187.5C1285.58 184.7 1291.38 180.5 1296.18 174.9L1313.58 192.6C1306.78 200.6 1298.38 206.7 1288.38 210.9C1278.58 215.1 1268.08 217.2 1256.88 217.2Z" fill="#9956B8"/>
<path d="M1117.15 217.2C1109.15 217.2 1101.55 216.2 1094.35 214.2C1087.35 212 1080.85 209 1074.85 205.2C1068.85 201.2 1063.65 196.5 1059.25 191.1L1076.65 173.7C1081.85 180.1 1087.85 184.9 1094.65 188.1C1101.45 191.1 1109.05 192.6 1117.45 192.6C1125.85 192.6 1132.35 191.2 1136.95 188.4C1141.55 185.4 1143.85 181.3 1143.85 176.1C1143.85 170.9 1141.95 166.9 1138.15 164.1C1134.55 161.1 1129.85 158.7 1124.05 156.9C1118.25 154.9 1112.05 153 1105.45 151.2C1099.05 149.2 1092.95 146.7 1087.15 143.7C1081.35 140.7 1076.55 136.6 1072.75 131.4C1069.15 126.2 1067.35 119.3 1067.35 110.7C1067.35 102.1 1069.45 94.7 1073.65 88.5C1077.85 82.1 1083.65 77.2 1091.05 73.8C1098.65 70.4 1107.75 68.7 1118.35 68.7C1129.55 68.7 1139.45 70.7 1148.05 74.7C1156.85 78.5 1164.05 84.3 1169.65 92.1L1152.25 109.5C1148.25 104.3 1143.25 100.3 1137.25 97.5C1131.45 94.7 1124.85 93.3 1117.45 93.3C1109.65 93.3 1103.65 94.7 1099.45 97.5C1095.45 100.1 1093.45 103.8 1093.45 108.6C1093.45 113.4 1095.25 117.1 1098.85 119.7C1102.45 122.3 1107.15 124.5 1112.95 126.3C1118.95 128.1 1125.15 130 1131.55 132C1137.95 133.8 1144.05 136.3 1149.85 139.5C1155.65 142.7 1160.35 147 1163.95 152.4C1167.75 157.8 1169.65 164.9 1169.65 173.7C1169.65 187.1 1164.85 197.7 1155.25 205.5C1145.85 213.3 1133.15 217.2 1117.15 217.2Z" fill="#9956B8"/>
<path d="M1014.06 214.2V71.7H1041.06V214.2H1014.06ZM1027.56 43.2C1022.56 43.2 1018.46 41.6 1015.26 38.4C1012.06 35 1010.46 30.8 1010.46 25.8C1010.46 21 1012.06 17 1015.26 13.8C1018.46 10.4 1022.56 8.70001 1027.56 8.70001C1032.56 8.70001 1036.66 10.4 1039.86 13.8C1043.06 17 1044.66 21 1044.66 25.8C1044.66 30.8 1043.06 35 1039.86 38.4C1036.66 41.6 1032.56 43.2 1027.56 43.2Z" fill="#9956B8"/>
<path d="M840.902 214.2L784.502 71.7H812.702L853.502 182.7H844.502L885.002 71.7H900.602L941.102 182.7H932.102L972.902 71.7H1001.1L945.002 214.2H929.102L888.002 106.5H897.902L856.502 214.2H840.902Z" fill="#9956B8"/>
<path d="M552.462 214.2V71.7H579.462V214.2H552.462ZM648.762 214.2V128.1C648.762 117.5 645.462 109.2 638.862 103.2C632.462 97 624.362 93.9 614.562 93.9C607.962 93.9 602.062 95.3 596.862 98.1C591.662 100.9 587.462 104.8 584.262 109.8C581.062 114.8 579.462 120.8 579.462 127.8L568.362 122.4C568.362 111.6 570.662 102.2 575.262 94.2C580.062 86.2 586.562 80 594.762 75.6C602.962 71 612.162 68.7 622.362 68.7C632.362 68.7 641.362 70.9 649.362 75.3C657.562 79.7 663.962 85.9 668.562 93.9C673.362 101.9 675.762 111.4 675.762 122.4V214.2H648.762ZM745.062 214.2V128.1C745.062 117.5 741.762 109.2 735.162 103.2C728.762 97 720.762 93.9 711.162 93.9C704.562 93.9 698.562 95.3 693.162 98.1C687.962 100.9 683.762 104.8 680.562 109.8C677.362 114.8 675.762 120.8 675.762 127.8L660.462 122.4C661.062 111.4 663.962 102 669.162 94.2C674.562 86.2 681.462 80 689.862 75.6C698.262 71 707.462 68.7 717.462 68.7C727.862 68.7 737.162 70.9 745.362 75.3C753.562 79.7 760.062 85.9 764.862 93.9C769.862 101.9 772.362 111.5 772.362 122.7V214.2H745.062Z" fill="#9956B8"/>
<path d="M456.64 217.2C442.64 217.2 430.04 213.9 418.84 207.3C407.64 200.7 398.74 191.8 392.14 180.6C385.54 169.2 382.24 156.5 382.24 142.5C382.24 128.7 385.54 116.3 392.14 105.3C398.74 94.1 407.64 85.2 418.84 78.6C430.04 72 442.64 68.7 456.64 68.7C470.44 68.7 482.94 72 494.14 78.6C505.54 85 514.54 93.8 521.14 105C527.74 116.2 531.04 128.7 531.04 142.5C531.04 156.5 527.74 169.2 521.14 180.6C514.54 191.8 505.54 200.7 494.14 207.3C482.94 213.9 470.44 217.2 456.64 217.2ZM456.64 191.1C465.64 191.1 473.64 189 480.64 184.8C487.64 180.6 493.14 174.9 497.14 167.7C501.14 160.3 503.14 151.9 503.14 142.5C503.14 133.3 501.04 125.1 496.84 117.9C492.84 110.7 487.34 105.1 480.34 101.1C473.54 96.9 465.64 94.8 456.64 94.8C447.64 94.8 439.64 96.9 432.64 101.1C425.64 105.1 420.14 110.7 416.14 117.9C412.14 125.1 410.14 133.3 410.14 142.5C410.14 151.9 412.14 160.3 416.14 167.7C420.14 174.9 425.64 180.6 432.64 184.8C439.64 189 447.64 191.1 456.64 191.1Z" fill="#9956B8"/>
<path d="M295.718 217.2C281.718 217.2 269.118 213.9 257.918 207.3C246.718 200.7 237.818 191.8 231.218 180.6C224.618 169.2 221.318 156.5 221.318 142.5C221.318 128.7 224.618 116.3 231.218 105.3C237.818 94.1 246.718 85.2 257.918 78.6C269.118 72 281.718 68.7 295.718 68.7C309.518 68.7 322.018 72 333.218 78.6C344.618 85 353.618 93.8 360.218 105C366.818 116.2 370.118 128.7 370.118 142.5C370.118 156.5 366.818 169.2 360.218 180.6C353.618 191.8 344.618 200.7 333.218 207.3C322.018 213.9 309.518 217.2 295.718 217.2ZM295.718 191.1C304.718 191.1 312.718 189 319.718 184.8C326.718 180.6 332.218 174.9 336.218 167.7C340.218 160.3 342.218 151.9 342.218 142.5C342.218 133.3 340.118 125.1 335.918 117.9C331.918 110.7 326.418 105.1 319.418 101.1C312.618 96.9 304.718 94.8 295.718 94.8C286.718 94.8 278.718 96.9 271.718 101.1C264.718 105.1 259.218 110.7 255.218 117.9C251.218 125.1 249.218 133.3 249.218 142.5C249.218 151.9 251.218 160.3 255.218 167.7C259.218 174.9 264.718 180.6 271.718 184.8C278.718 189 286.718 191.1 295.718 191.1Z" fill="#9956B8"/>
<path d="M173.114 214.2V0H200.114V214.2H173.114Z" fill="#9956B8"/>
<path d="M18.9 214.2V189.6H81.9C93.9 189.6 103.3 186.1 110.1 179.1C116.9 171.9 120.3 163.3 120.3 153.3C120.3 146.5 118.8 140.4 115.8 135C112.8 129.4 108.4 125 102.6 121.8C97 118.6 90.4 117 82.8 117H18.9V92.4H78.6C88.6 92.4 96.5 89.8 102.3 84.6C108.3 79.2 111.3 71.5 111.3 61.5C111.3 51.5 108.2 43.9 102 38.7C95.8 33.3 87.6 30.6 77.4 30.6H18.9V6H78C91.6 6 102.9 8.5 111.9 13.5C121.1 18.3 128 24.7 132.6 32.7C137.4 40.7 139.8 49.5 139.8 59.1C139.8 70.3 136.7 80.1 130.5 88.5C124.5 96.9 115.6 103.5 103.8 108.3L106.2 99.3C119.6 104.1 130 111.4 137.4 121.2C145 130.8 148.8 142.2 148.8 155.4C148.8 166.4 146.1 176.3 140.7 185.1C135.3 193.9 127.5 201 117.3 206.4C107.3 211.6 95 214.2 80.4 214.2H18.9ZM0 214.2V6H28.2V214.2H0Z" fill="#9956B8"/>
</g>
<defs>
<clipPath id="clip0_85_28">
<rect width="1322" height="217" fill="white"/>
</clipPath>
</defs>
</svg>
